<svg  xmlns="http://www.w3.org/2000/svg" xmlns:xlink="http://www.w3.org/1999/xlink" 
	 width="100%" viewBox="0 0 100 83"  xml:space="preserve">
<path fill="#828791" opacity="1.000000" stroke="none" id="common-path"
	d="
M41.646271,1.264793 
	C48.021152,1.000000 54.042305,1.000000 60.531731,1.000000 
	C63.112144,2.556065 65.644722,2.011544 67.988136,2.355129 
	C83.225128,4.589136 94.530022,13.501679 98.153130,27.540466 
	C103.760262,49.266937 99.937042,66.414024 78.416664,78.927376 
	C73.276405,81.916267 67.510551,82.289825 61.680248,82.353027 
	C44.708366,82.536980 27.738106,82.611839 10.766744,82.329323 
	C3.851337,82.214195 2.891072,81.094139 3.188910,74.198586 
	C3.274051,72.227409 3.668442,70.423912 4.514659,68.772911 
	C6.423957,65.047791 5.648293,61.578064 4.637895,57.708122 
	C-2.003165,32.272137 2.612155,17.258274 24.412493,4.637723 
	C29.552517,1.662084 35.656052,2.550513 41.646271,1.264793 
z"/>
<path fill="#252A34" opacity="1.000000" stroke="none" id="common-path"
	d="
M60.571693,12.035473 
	C84.428963,15.370170 96.672005,36.656593 86.022270,56.073414 
	C80.837746,65.525940 72.510719,71.464882 61.582211,71.900345 
	C47.963223,72.443024 34.304558,71.939697 20.663908,72.026527 
	C17.514275,72.046577 17.102703,70.718163 18.582293,68.523277 
	C21.161104,64.697784 19.797455,62.163490 17.293512,58.601421 
	C10.684074,49.198948 11.205389,38.562889 15.739708,28.645550 
	C20.342918,18.577528 29.070789,13.003926 40.166565,12.103437 
	C46.775536,11.567080 53.463551,12.004617 60.571693,12.035473 
z"/>
<path fill="#818690" opacity="1.000000" stroke="none" id="common-path"
	d="
M76.526947,30.976627 
	C76.885658,34.484676 77.095207,37.637726 77.114975,40.791962 
	C77.133751,43.785923 76.113121,45.986370 72.570862,46.060497 
	C69.048813,46.134197 67.903908,44.116879 67.858978,41.021851 
	C67.832405,39.191467 67.800652,37.359566 67.843613,35.530048 
	C67.998230,28.945473 69.965004,27.811380 76.526947,30.976627 
z"/>
<path  fill="#818690" opacity="1.000000" stroke="none" id="common-path"
	d="
M47.729248,45.963493 
	C43.745121,46.429993 42.022461,44.613419 41.871204,41.253597 
	C41.752987,38.627586 41.714451,35.962322 42.031155,33.362080 
	C42.370842,30.573090 44.027622,28.840485 47.098976,29.216082 
	C49.766174,29.542255 51.459671,30.979280 51.020706,33.831589 
	C50.390884,37.924026 53.386391,42.912083 47.729248,45.963493 
z"/>
</svg>