<svg viewBox="0 0 40 34" version="1.1" xmlns="http://www.w3.org/2000/svg" xmlns:xlink="http://www.w3.org/1999/xlink" width="40"  height="34" >
<path class="blue-hover" d="M17,0 L23,0 C32.3888407,-1.72470207e-15 40,7.61115925 40,17 C40,26.3888407 32.3888407,34 23,34 L17,34 C7.61115925,34 1.14980138e-15,26.3888407 0,17 C-1.14980138e-15,7.61115925 7.61115925,1.72470207e-15 17,0 Z" id="矩形" fill="#BDBFC2"></path>
<path class="white-hover" d="M25,11.0744073 L25,8 L22.3459055,8 L22.3459055,8.01288844 C18.8614848,8.13345284 18.145777,10.0566138 18.0838475,12.0770432 L18.0766877,14.2125912 L16,14.2125912 L16,17.2873313 L18.0766877,17.2873313 L18.0766877,26 L21.8025539,26 L21.8025539,17.2873313 L24.4719471,17.2873313 L25,14.2125912 L21.8025539,14.2125912 L21.8025539,12.3039524 C21.8025539,11.6246469 22.2640264,11.0744073 22.9231899,11.0744073 L25,11.0744073 Z" id="Fill-1" fill="#242933"></path>
</svg>