<svg id="Layer_1" xmlns="http://www.w3.org/2000/svg" xmlns:xlink="http://www.w3.org/1999/xlink" 
	 width="100%" viewBox="0 0 99 80"  xml:space="preserve">
<path fill="#868B95" opacity="1.000000" stroke="none" 
	d="
M22.000000,1.000000 
	C41.354229,1.000000 60.708454,1.000000 80.485077,1.378464 
	C97.149338,8.187816 98.177727,9.741574 98.177917,27.857355 
	C98.178047,40.684181 98.203545,53.511082 98.168396,66.337814 
	C98.141891,76.009033 92.928085,79.512886 83.834625,75.941940 
	C74.389687,72.232964 64.930298,68.550980 55.589142,64.593056 
	C52.445217,63.260944 49.784660,63.158024 46.603237,64.500793 
	C36.643559,68.704453 26.594250,72.705307 16.500368,76.578049 
	C9.867978,79.122719 4.039895,75.835495 3.953493,69.176941 
	C3.735241,52.357323 3.701173,35.526234 4.094473,18.711466 
	C4.300238,9.914347 9.870234,4.451293 18.558840,2.821495 
	C19.776926,2.593008 20.856377,1.625450 22.000000,1.000000 
M88.347229,15.682558 
	C86.284546,11.656813 82.587326,11.021996 78.608376,11.020154 
	C60.301941,11.011679 41.995434,10.986703 23.689089,11.028489 
	C15.445984,11.047305 12.712748,13.822199 12.678596,22.216595 
	C12.623077,35.862984 12.648214,49.509800 12.682201,63.156330 
	C12.686076,64.712204 12.964801,66.267395 13.165779,68.333870 
	C15.352375,67.585655 16.912663,67.125748 18.416683,66.524979 
	C27.522366,62.887806 36.674450,59.356594 45.683376,55.492374 
	C49.323524,53.930996 52.506893,53.850021 56.173500,55.423527 
	C65.181694,59.289345 74.333450,62.821545 83.440483,66.455284 
	C85.077301,67.108383 86.776398,67.605408 89.340721,68.479065 
	C89.340721,62.220520 89.405220,56.775742 89.327400,51.333000 
	C89.161110,39.702675 88.921150,28.073400 88.347229,15.682558 
z"/>

<path fill="#252A34" opacity="1.000000" stroke="none" 
	d="
M88.529297,16.063128 
	C88.921150,28.073400 89.161110,39.702675 89.327400,51.333000 
	C89.405220,56.775742 89.340721,62.220520 89.340721,68.479065 
	C86.776398,67.605408 85.077301,67.108383 83.440483,66.455284 
	C74.333450,62.821545 65.181694,59.289345 56.173500,55.423527 
	C52.506893,53.850021 49.323524,53.930996 45.683376,55.492374 
	C36.674450,59.356594 27.522366,62.887806 18.416683,66.524979 
	C16.912663,67.125748 15.352375,67.585655 13.165779,68.333870 
	C12.964801,66.267395 12.686076,64.712204 12.682201,63.156330 
	C12.648214,49.509800 12.623077,35.862984 12.678596,22.216595 
	C12.712748,13.822199 15.445984,11.047305 23.689089,11.028489 
	C41.995434,10.986703 60.301941,11.011679 78.608376,11.020154 
	C82.587326,11.021996 86.284546,11.656813 88.529297,16.063128 
M55.161678,43.382088 
	C55.327820,41.430813 55.493958,39.479542 55.674107,37.363731 
	C58.509018,37.053459 61.047848,36.775593 63.949226,36.458046 
	C63.817913,33.470280 63.705933,30.922340 63.592861,28.349607 
	C60.608635,28.093039 58.203918,27.886293 56.440647,27.734695 
	C53.914574,25.032202 57.705498,20.352001 51.939728,19.549866 
	C44.330151,18.491222 47.897415,25.089163 45.846493,27.783716 
	C43.320400,27.992739 40.908623,28.192303 38.494652,28.392048 
	C38.494652,31.429531 38.494652,33.973186 38.494652,36.640949 
	C41.307346,36.883186 43.716415,37.090664 46.277817,37.311256 
	C46.596100,40.026161 46.874783,42.403236 47.226070,45.399662 
	C50.139271,44.959919 52.507599,44.602421 55.161678,43.382088 
z"/>
<path fill="#888D97" opacity="1.000000" stroke="none" 
	d="
M55.018806,43.813507 
	C52.507599,44.602421 50.139271,44.959919 47.226070,45.399662 
	C46.874783,42.403236 46.596100,40.026161 46.277817,37.311256 
	C43.716415,37.090664 41.307346,36.883186 38.494652,36.640949 
	C38.494652,33.973186 38.494652,31.429531 38.494652,28.392048 
	C40.908623,28.192303 43.320400,27.992739 45.846493,27.783716 
	C47.897415,25.089163 44.330151,18.491222 51.939728,19.549866 
	C57.705498,20.352001 53.914574,25.032202 56.440647,27.734695 
	C58.203918,27.886293 60.608635,28.093039 63.592861,28.349607 
	C63.705933,30.922340 63.817913,33.470280 63.949226,36.458046 
	C61.047848,36.775593 58.509018,37.053459 55.674107,37.363731 
	C55.493958,39.479542 55.327820,41.430813 55.018806,43.813507 
z"/>
</svg>