<svg viewBox="0 0 40 34" version="1.1" xmlns="http://www.w3.org/2000/svg" xmlns:xlink="http://www.w3.org/1999/xlink" width="40"  height="34" >
<path class="blue-hover" d="M17,0 L23,0 C32.3888407,-1.72470207e-15 40,7.61115925 40,17 C40,26.3888407 32.3888407,34 23,34 L17,34 C7.61115925,34 1.14980138e-15,26.3888407 0,17 C-1.14980138e-15,7.61115925 7.61115925,1.72470207e-15 17,0 Z" id="矩形备份-10" fill="#BDBFC2"></path>
<g class="white-hover" transform="translate(11.000000, 7.000000)" fill="#242933">
<path d="M9.0000415,6.69406151 C7.34274629,6.69406151 6,8.03681244 6,9.69411338 C6,11.3513106 7.34274629,12.6940615 9.0000415,12.6940615 C10.6572537,12.6940615 12,11.3513106 12,9.69411338 C12,8.03681244 10.6572537,6.69406151 9.0000415,6.69406151" id="Fill-1" fill="#242933"></path>
<path d="M4.23689345,0.75 C1.90706544,0.75 0,2.65801991 0,4.98901396 L0,14.5199948 C0,16.8419801 1.90706544,18.75 4.23689345,18.75 L13.7631285,18.75 C16.0929565,18.75 18,16.8419801 18,14.510986 L18,4.98901396 C17.9909957,2.65801991 16.0839303,0.75 13.7541023,0.75 L4.23689345,0.75 Z M9.0000545,15 C6.09823362,15 3.75,12.6517664 3.75,9.7500545 C3.75,6.84823362 6.09823362,4.5 9.0000545,4.5 C11.9017664,4.5 14.25,6.84823362 14.25,9.7500545 C14.25,12.6517664 11.9017664,15 9.0000545,15 L9.0000545,15 Z M15.0000364,5.25 C14.1755511,5.25 13.5,4.58439236 13.5,3.74996362 C13.5,2.91553489 14.1656076,2.25 15.0000364,2.25 C15.8245459,2.25 16.5,2.91553489 16.5,3.74996362 C16.4900565,4.57454587 15.8245459,5.25 15.0000364,5.25 L15.0000364,5.25 Z" fill="#242933"></path>
</g>
</svg>