<svg viewBox="0 0 40 34" version="1.1" xmlns="http://www.w3.org/2000/svg" xmlns:xlink="http://www.w3.org/1999/xlink" width="40"  height="34" >
<path class="blue-hover" d="M17,0 L23,0 C32.3888407,-1.72470207e-15 40,7.61115925 40,17 C40,26.3888407 32.3888407,34 23,34 L17,34 C7.61115925,34 1.14980138e-15,26.3888407 0,17 C-1.14980138e-15,7.61115925 7.61115925,1.72470207e-15 17,0 Z" id="矩形备份-7" fill="#BDBFC2"></path>
<g class="white-hover" id="编组-64" transform="translate(12.000000, 9.000000)" fill="#242933">
<path d="M17.4899531,10.2483587 L17.4899531,16.7161263 L13.7435354,16.7161263 L13.7435354,10.6812455 C13.7435354,9.88404632 13.5896979,9.25966989 13.2822276,8.80838905 C12.9746436,8.35701726 12.4944188,8.13108126 11.8414394,8.13062653 C11.3633518,8.13062653 10.9630697,8.26165895 10.6404794,8.52347368 C10.3178209,8.78528842 10.0769468,9.10985684 9.91760697,9.49706526 C9.83393539,9.72495663 9.79219055,10.0324724 9.79219055,10.4196808 L9.79219055,16.7167175 L6.04568192,16.7167175 C6.06077918,13.6880109 6.0682596,11.232432 6.0682596,9.34979874 C6.0682596,7.46727916 6.06432613,6.34376084 6.05661834,5.97944842 L6.04486339,5.43278653 L9.79148571,5.43278653 L9.79148571,7.07247663 L9.76883982,7.07247663 C9.92090382,6.82957895 10.0766739,6.61705768 10.2360137,6.43486737 C10.3953535,6.25263158 10.6098301,6.05545768 10.87958,5.84309558 C11.1492162,5.63084716 11.4792642,5.46561853 11.8698604,5.34761432 C12.2604794,5.22945095 12.6950487,5.17067621 13.173591,5.17121813 C14.4717282,5.17121813 15.5155767,5.60188042 16.305068,6.46328842 C17.0944457,7.32474189 17.4892482,8.58661389 17.4892482,10.2491545 L17.4899531,10.2483587 Z" id="路径" fill="#242933"></path>
<path d="M4.21288782,1.94718316 C4.22061834,2.50148463 4.02903771,2.96449768 3.63789582,3.33617684 C3.24675392,3.70787874 2.73251476,3.89393432 2.09508739,3.89438905 L2.07248697,3.89438905 C1.4501796,3.89438905 0.949082342,3.70831074 0.569126973,3.33617684 C0.189148868,2.96404295 -0.000521868966,2.50102989 -2.4158453e-13,1.94718316 C-2.4158453e-13,1.38562863 0.195492447,0.920569263 0.586611605,0.552346105 C0.977685289,0.184100211 1.48828655,0 2.11843813,0 C2.74858971,0 3.25332487,0.184100211 3.63273455,0.552346105 C4.01216697,0.920569263 4.20579392,1.38562863 4.21356992,1.94718316 L4.21288782,1.94718316 Z" id="路径" fill="#242933"></path>
<polygon  points="0.216455815 16.7160126 3.97378718 16.7160126 3.97378718 5.43205895 0.216455815 5.43205895" fill="#242933"></polygon>
</g>
</svg>