<svg viewBox="0 0 40 34" version="1.1" xmlns="http://www.w3.org/2000/svg" xmlns:xlink="http://www.w3.org/1999/xlink" width="40"  height="34" >
<path class="blue-hover" d="M17,0 L23,0 C32.3888407,-1.72470207e-15 40,7.61115925 40,17 C40,26.3888407 32.3888407,34 23,34 L17,34 C7.61115925,34 1.14980138e-15,26.3888407 0,17 C-1.14980138e-15,7.61115925 7.61115925,1.72470207e-15 17,0 Z" id="矩形备份-12" fill="#BDBFC2"></path>
<path class="white-hover" d="M32,11.0124772 C31.2272136,11.3533698 30.3982851,11.5845657 29.5268527,11.6880546 C30.4162044,11.1580668 31.0991379,10.3153386 31.4194809,9.31422204 C30.587835,9.8057113 29.6652596,10.1620595 28.683799,10.3561619 C27.8981948,9.52229834 26.7795323,9 25.540331,9 C23.1609076,9 21.2323383,10.9218638 21.2323383,13.2918899 C21.2323383,13.6276987 21.2707917,13.9559203 21.3438789,14.2699635 C17.7649126,14.0899372 14.5907844,12.3814124 12.4663331,9.78404786 C12.0947188,10.4187253 11.8831222,11.1567639 11.8831222,11.9421402 C11.8831222,13.4310162 12.5501616,14.7450519 13.7059702,15.514947 C12.9998877,15.4920828 11.6615277,15.2992067 11.6615277,14.9773718 L11.6615277,15.0309684 C11.6615277,17.1099176 13.2408115,18.8452663 15.2103465,19.2398577 C14.8490634,19.3382373 14.5149798,19.3905565 14.1215496,19.3905565 C13.8433516,19.3905565 13.5976083,19.3623787 13.3336381,19.3125886 C13.8821127,21.0186354 15.4839301,22.2586373 17.3688676,22.2942492 C15.8953053,23.4448383 14.0429251,24.1319116 12.024913,24.1319116 C11.6762426,24.1319116 11.3370574,24.110146 11,24.0718263 C12.9068559,25.2887852 15.1712009,26 17.6045873,26 C25.5275131,26 29.8606288,19.459481 29.8606288,13.7873644 C29.8606288,13.6008493 29.8571167,13.4157394 29.8481955,13.2319322 C30.6901725,12.6266077 31.4193014,11.8705844 31.9972057,11.0098715 L32,11.0124772 Z" id="Fill-1" fill="#242933"></path>
</svg>