<svg xmlns="http://www.w3.org/2000/svg" xmlns:xlink="http://www.w3.org/1999/xlink" width="329" height="103" viewBox="0 0 329 103" version="1.1">
    
        <g id="Bigbanner备份" transform="translate(-1119.000000, -860.000000)" fill="#242933" fill-rule="nonzero">
            <path d="M1178.64512,963 C1184.2565,963 1188.65854,961.801045 1191.85122,959.403134 C1194.56016,957.388889 1196.97886,953.983856 1199.10732,949.188034 L1199.10732,949.188034 L1238,862 L1217.5378,862 L1183.28902,941.131054 C1182.0313,943.816714 1180.48333,945.159544 1178.64512,945.159544 C1176.61341,945.159544 1174.9687,943.816714 1173.71098,941.131054 L1173.71098,941.131054 L1139.75244,862 L1119,862 L1158.0378,949.188034 C1160.06951,953.983856 1162.53659,957.436847 1165.43902,959.547009 C1168.63171,961.849003 1173.03374,963 1178.64512,963 Z M1335.56769,961 L1335.56769,944.742165 L1267.60621,944.742165 L1267.60621,939.706553 C1267.60621,935.006648 1268.84621,931.505698 1271.3262,929.203704 C1273.8062,926.901709 1278.57543,924.791548 1285.63389,922.873219 L1285.63389,922.873219 L1306.95233,917.118234 C1317.54002,914.240741 1324.98001,911.075499 1329.27231,907.622507 C1335.09077,902.922602 1338,896.208452 1338,887.480057 C1338,877.792498 1334.56616,870.790598 1327.69847,866.474359 C1320.92617,862.15812 1309.86156,860 1294.50465,860 C1280.19697,860 1266.12775,861.438746 1252.29699,864.316239 L1252.29699,864.316239 L1252.29699,880.861823 C1264.31544,877.792498 1277.62158,876.257835 1292.21542,876.257835 C1302.42157,876.257835 1309.43233,877.169041 1313.24771,878.991453 C1316.96771,880.717949 1318.82771,883.835233 1318.82771,888.343305 C1318.82771,892.275878 1317.15848,895.345204 1313.82002,897.551282 C1311.34002,899.181861 1306.71387,900.908357 1299.94157,902.730769 L1299.94157,902.730769 L1275.76159,908.62963 C1262.78929,912.178538 1254.87237,917.310066 1252.01083,924.024217 C1249.91237,928.532289 1248.91084,934.1434 1249.00622,940.85755 L1249.00622,940.85755 L1249.00622,961 L1335.56769,961 Z M1389.70455,963 C1409.37626,963 1423.86616,959.00887 1433.17424,951.026611 C1443.05808,942.563492 1448,928.762838 1448,909.62465 C1448,892.409897 1444.11364,879.859477 1436.34091,871.973389 C1428.47222,863.99113 1416.04545,860 1399.06061,860 C1383.70707,860 1372.14394,862.93324 1364.37121,868.79972 C1356.7904,874.570028 1353,882.936975 1353,893.90056 C1353,904.671802 1356.59848,912.55789 1363.79545,917.558824 C1370.60859,922.367414 1380.97222,924.771709 1394.88636,924.771709 C1407.74495,924.771709 1419.16414,923.377218 1429.14394,920.588235 C1427.89646,930.782446 1424.15404,937.754902 1417.91667,941.505602 C1412.06313,945.063959 1402.37121,946.843137 1388.84091,946.843137 C1378.76515,946.843137 1369.26515,945.929505 1360.34091,944.102241 L1360.34091,944.102241 L1360.34091,960.403361 C1368.11364,962.134454 1377.90152,963 1389.70455,963 Z M1396.97015,910 C1387.8325,910 1381.29187,908.794326 1377.34826,906.382979 C1373.11609,903.778723 1371,899.486525 1371,893.506383 C1371,887.333333 1373.21227,882.848227 1377.63682,880.051064 C1381.96517,877.350355 1388.89055,876 1398.41294,876 C1408.99337,876 1416.54395,878.170213 1421.06468,882.510638 C1425.87396,887.043972 1428.51907,895.001418 1429,906.382979 C1418.99668,908.794326 1408.32007,910 1396.97015,910 Z" id="V29Pro"/>
    </g>
</svg>