<svg viewBox="0 0 40 34" version="1.1" xmlns="http://www.w3.org/2000/svg" xmlns:xlink="http://www.w3.org/1999/xlink" width="40"  height="34" >
<path class="blue-hover" d="M17,0 L23,0 C32.3888407,-1.72470207e-15 40,7.61115925 40,17 C40,26.3888407 32.3888407,34 23,34 L17,34 C7.61115925,34 1.14980138e-15,26.3888407 0,17 C-1.14980138e-15,7.61115925 7.61115925,1.72470207e-15 17,0 Z" fill="#BDBFC2"></path>
<g transform="translate(10.000000, 10.000000)" fill="#242933">
<path class="white-hover" d="M16.5355059,0 C19.98,0 19.98,3.44528932 19.98,3.44528932 L19.98,3.44528932 L19.98,10.5946252 C19.98,14.0421738 16.5355059,14.0421738 16.5355059,14.04 L3.44220899,14.04 C0.167912634,14.04 0.00819086018,10.9225609 0.000399554155,10.6184205 L0,3.44528932 C0,0.168062893 3.11457458,0.00819818993 3.41843552,0.000399911704 Z M7.56,3.24 L7.56,10.8 L14.04,7.02101435 L7.56,3.24 Z" fill="#242933"></path>
</g>
</svg>